<mxfile host="Electron" modified="2023-10-22T15:49:42.788Z" agent="Mozilla/5.0 (Windows NT 10.0; Win64; x64) AppleWebKit/537.36 (KHTML, like Gecko) draw.io/22.0.3 Chrome/114.0.5735.289 Electron/25.8.4 Safari/537.36" etag="_wqvRAt8fbLht02OxjAO" version="22.0.3" type="device">
  <diagram name="Page-1" id="K7GGyE9mfa9EHH289KWn">
    <mxGraphModel dx="1674" dy="836" grid="1" gridSize="10" guides="1" tooltips="1" connect="1" arrows="1" fold="1" page="1" pageScale="1" pageWidth="850" pageHeight="1100" math="0" shadow="0">
      <root>
        <mxCell id="0" />
        <mxCell id="1" parent="0" />
        <mxCell id="R7dfJEu_5J_XWcmGC57w-11" value="" style="rounded=0;whiteSpace=wrap;html=1;" parent="1" vertex="1">
          <mxGeometry x="20" y="197" width="360" height="260" as="geometry" />
        </mxCell>
        <mxCell id="R7dfJEu_5J_XWcmGC57w-8" value="&lt;div&gt;CASIER&lt;/div&gt;&lt;div&gt;id_angajat#&lt;br&gt;&lt;/div&gt;&lt;div&gt;nr_casa_de_marcat&lt;br&gt;&lt;/div&gt;" style="rounded=1;whiteSpace=wrap;html=1;" parent="1" vertex="1">
          <mxGeometry x="250" y="217" width="120" height="60" as="geometry" />
        </mxCell>
        <mxCell id="R7dfJEu_5J_XWcmGC57w-9" value="&lt;div&gt;BUCATAR&lt;/div&gt;&lt;div&gt;id_angajat#&lt;br&gt;&lt;/div&gt;&lt;div&gt;data_antrenament_&lt;/div&gt;&lt;div&gt;de_siguranta&lt;br&gt;&lt;/div&gt;" style="rounded=1;whiteSpace=wrap;html=1;" parent="1" vertex="1">
          <mxGeometry x="250" y="297" width="120" height="60" as="geometry" />
        </mxCell>
        <mxCell id="R7dfJEu_5J_XWcmGC57w-10" value="&lt;div&gt;MANAGER&lt;/div&gt;&lt;div&gt;id_angajat#&lt;br&gt;&lt;/div&gt;&lt;div&gt;autorizat_sa_&lt;/div&gt;&lt;div&gt;angajeze&lt;br&gt;&lt;/div&gt;" style="rounded=1;whiteSpace=wrap;html=1;" parent="1" vertex="1">
          <mxGeometry x="250" y="387" width="120" height="60" as="geometry" />
        </mxCell>
        <mxCell id="R7dfJEu_5J_XWcmGC57w-13" value="&lt;div&gt;ANGAJAT&lt;/div&gt;&lt;div&gt;id_angajat#&lt;/div&gt;&lt;div&gt;job_cod&lt;/div&gt;&lt;div&gt;nume&lt;/div&gt;&lt;div&gt;data_angajare&lt;/div&gt;&lt;div&gt;id_angajator&lt;br&gt;&lt;/div&gt;&lt;div&gt;id_restaurant&lt;/div&gt;" style="text;html=1;strokeColor=none;fillColor=none;align=center;verticalAlign=middle;whiteSpace=wrap;rounded=0;" parent="1" vertex="1">
          <mxGeometry x="40" y="217" width="60" height="220" as="geometry" />
        </mxCell>
        <mxCell id="DwRfLZ-1oQ1YcIXO67qD-1" value="" style="endArrow=none;html=1;rounded=0;exitX=0;exitY=0.5;exitDx=0;exitDy=0;" parent="1" source="R7dfJEu_5J_XWcmGC57w-8" edge="1">
          <mxGeometry width="50" height="50" relative="1" as="geometry">
            <mxPoint x="380" y="527" as="sourcePoint" />
            <mxPoint x="182" y="197" as="targetPoint" />
            <Array as="points">
              <mxPoint x="182" y="247" />
            </Array>
          </mxGeometry>
        </mxCell>
        <mxCell id="DwRfLZ-1oQ1YcIXO67qD-3" value="" style="endArrow=none;html=1;rounded=0;" parent="1" edge="1">
          <mxGeometry width="50" height="50" relative="1" as="geometry">
            <mxPoint x="250" y="325" as="sourcePoint" />
            <mxPoint x="140" y="457" as="targetPoint" />
            <Array as="points">
              <mxPoint x="140" y="325" />
            </Array>
          </mxGeometry>
        </mxCell>
        <mxCell id="DwRfLZ-1oQ1YcIXO67qD-5" value="" style="endArrow=none;html=1;rounded=0;exitX=0;exitY=0.5;exitDx=0;exitDy=0;" parent="1" source="R7dfJEu_5J_XWcmGC57w-10" edge="1">
          <mxGeometry width="50" height="50" relative="1" as="geometry">
            <mxPoint x="250" y="415" as="sourcePoint" />
            <mxPoint x="180" y="457" as="targetPoint" />
            <Array as="points">
              <mxPoint x="180" y="417" />
            </Array>
          </mxGeometry>
        </mxCell>
        <mxCell id="DwRfLZ-1oQ1YcIXO67qD-7" value="&lt;div&gt;RESTAURANT&lt;/div&gt;&lt;div&gt;id_restaurant#&lt;/div&gt;&lt;div&gt;data_deschidere&lt;br&gt;&lt;/div&gt;&lt;div&gt;id_oras&lt;br&gt;&lt;/div&gt;" style="rounded=0;whiteSpace=wrap;html=1;" parent="1" vertex="1">
          <mxGeometry x="415" y="517" width="190" height="80" as="geometry" />
        </mxCell>
        <mxCell id="DwRfLZ-1oQ1YcIXO67qD-10" value="" style="endArrow=none;html=1;rounded=0;entryX=1;entryY=0.5;entryDx=0;entryDy=0;" parent="1" target="R7dfJEu_5J_XWcmGC57w-8" edge="1">
          <mxGeometry width="50" height="50" relative="1" as="geometry">
            <mxPoint x="630" y="247" as="sourcePoint" />
            <mxPoint x="370" y="257" as="targetPoint" />
          </mxGeometry>
        </mxCell>
        <mxCell id="DwRfLZ-1oQ1YcIXO67qD-13" value="" style="endArrow=none;html=1;rounded=0;entryX=0.5;entryY=1;entryDx=0;entryDy=0;exitX=1;exitY=0.5;exitDx=0;exitDy=0;" parent="1" source="DwRfLZ-1oQ1YcIXO67qD-7" edge="1">
          <mxGeometry width="50" height="50" relative="1" as="geometry">
            <mxPoint x="670" y="537" as="sourcePoint" />
            <mxPoint x="725" y="367" as="targetPoint" />
            <Array as="points">
              <mxPoint x="725" y="557" />
            </Array>
          </mxGeometry>
        </mxCell>
        <mxCell id="DwRfLZ-1oQ1YcIXO67qD-16" value="&lt;div&gt;RETETA&lt;/div&gt;&lt;div&gt;id_reteta#&lt;/div&gt;&lt;div&gt;nume&lt;/div&gt;&lt;div&gt;pret&lt;br&gt;&lt;/div&gt;" style="rounded=0;whiteSpace=wrap;html=1;" parent="1" vertex="1">
          <mxGeometry x="569" y="712" width="120" height="60" as="geometry" />
        </mxCell>
        <mxCell id="DwRfLZ-1oQ1YcIXO67qD-25" value="&lt;div&gt;ORAS&lt;/div&gt;&lt;div&gt;id_oras#&lt;/div&gt;&lt;div&gt;nume&lt;br&gt;&lt;/div&gt;" style="rounded=0;whiteSpace=wrap;html=1;" parent="1" vertex="1">
          <mxGeometry x="480" y="407" width="60" height="60" as="geometry" />
        </mxCell>
        <mxCell id="DwRfLZ-1oQ1YcIXO67qD-26" value="" style="endArrow=none;html=1;rounded=0;entryX=0.5;entryY=1;entryDx=0;entryDy=0;exitX=0.5;exitY=0;exitDx=0;exitDy=0;" parent="1" source="DwRfLZ-1oQ1YcIXO67qD-7" target="DwRfLZ-1oQ1YcIXO67qD-25" edge="1">
          <mxGeometry width="50" height="50" relative="1" as="geometry">
            <mxPoint x="390" y="587" as="sourcePoint" />
            <mxPoint x="440" y="537" as="targetPoint" />
          </mxGeometry>
        </mxCell>
        <mxCell id="DwRfLZ-1oQ1YcIXO67qD-41" value="&lt;div&gt;INGREDIENT&lt;/div&gt;&lt;div&gt;id_ingredient#&lt;/div&gt;&lt;div&gt;nume&lt;br&gt;&lt;/div&gt;" style="rounded=0;whiteSpace=wrap;html=1;" parent="1" vertex="1">
          <mxGeometry x="234" y="712" width="120" height="60" as="geometry" />
        </mxCell>
        <mxCell id="DwRfLZ-1oQ1YcIXO67qD-49" value="" style="endArrow=none;html=1;rounded=0;entryX=0.5;entryY=1;entryDx=0;entryDy=0;exitX=0;exitY=0.5;exitDx=0;exitDy=0;" parent="1" source="DwRfLZ-1oQ1YcIXO67qD-7" target="R7dfJEu_5J_XWcmGC57w-11" edge="1">
          <mxGeometry width="50" height="50" relative="1" as="geometry">
            <mxPoint x="390" y="577" as="sourcePoint" />
            <mxPoint x="440" y="527" as="targetPoint" />
            <Array as="points">
              <mxPoint x="200" y="557" />
            </Array>
          </mxGeometry>
        </mxCell>
        <mxCell id="DwRfLZ-1oQ1YcIXO67qD-52" value="" style="endArrow=none;html=1;rounded=0;entryX=0.25;entryY=1;entryDx=0;entryDy=0;" parent="1" target="R7dfJEu_5J_XWcmGC57w-11" edge="1">
          <mxGeometry width="50" height="50" relative="1" as="geometry">
            <mxPoint x="60" y="457" as="sourcePoint" />
            <mxPoint x="110" y="467" as="targetPoint" />
            <Array as="points">
              <mxPoint x="60" y="517" />
              <mxPoint x="110" y="517" />
            </Array>
          </mxGeometry>
        </mxCell>
        <mxCell id="DwRfLZ-1oQ1YcIXO67qD-55" value="&lt;div&gt;ALERGIE&lt;/div&gt;&lt;div&gt;id_alergie#&lt;/div&gt;&lt;div&gt;nume&lt;br&gt;&lt;/div&gt;" style="rounded=0;whiteSpace=wrap;html=1;" parent="1" vertex="1">
          <mxGeometry x="90" y="817" width="120" height="60" as="geometry" />
        </mxCell>
        <mxCell id="LTqqhIScXa48sC5BbTXQ-9" value="&lt;b&gt;X&lt;/b&gt;" style="text;html=1;align=center;verticalAlign=middle;resizable=0;points=[];autosize=1;strokeColor=none;fillColor=none;" parent="1" vertex="1">
          <mxGeometry x="44" y="442" width="30" height="30" as="geometry" />
        </mxCell>
        <mxCell id="LTqqhIScXa48sC5BbTXQ-10" value="&lt;b&gt;X&lt;/b&gt;" style="text;html=1;align=center;verticalAlign=middle;resizable=0;points=[];autosize=1;strokeColor=none;fillColor=none;" parent="1" vertex="1">
          <mxGeometry x="185" y="443" width="30" height="30" as="geometry" />
        </mxCell>
        <mxCell id="LTqqhIScXa48sC5BbTXQ-11" value="&lt;b&gt;X&lt;/b&gt;" style="text;html=1;align=center;verticalAlign=middle;resizable=0;points=[];autosize=1;strokeColor=none;fillColor=none;" parent="1" vertex="1">
          <mxGeometry x="494" y="501" width="30" height="30" as="geometry" />
        </mxCell>
        <mxCell id="LTqqhIScXa48sC5BbTXQ-20" value="&lt;div&gt;RETETA_contine_&lt;/div&gt;&lt;div&gt;INGREDIENT&lt;/div&gt;&lt;div&gt;id_reteta#&lt;/div&gt;&lt;div&gt;id_ingredient#&lt;br&gt;&lt;/div&gt;" style="rounded=0;whiteSpace=wrap;html=1;dashed=1;dashPattern=1 2;" parent="1" vertex="1">
          <mxGeometry x="370" y="712" width="182.5" height="60" as="geometry" />
        </mxCell>
        <mxCell id="LTqqhIScXa48sC5BbTXQ-21" value="" style="endArrow=none;html=1;rounded=0;entryX=0;entryY=0.5;entryDx=0;entryDy=0;exitX=1;exitY=0.5;exitDx=0;exitDy=0;" parent="1" source="LTqqhIScXa48sC5BbTXQ-20" target="DwRfLZ-1oQ1YcIXO67qD-16" edge="1">
          <mxGeometry width="50" height="50" relative="1" as="geometry">
            <mxPoint x="390" y="797" as="sourcePoint" />
            <mxPoint x="440" y="747" as="targetPoint" />
          </mxGeometry>
        </mxCell>
        <mxCell id="LTqqhIScXa48sC5BbTXQ-22" value="" style="endArrow=none;html=1;rounded=0;entryX=1;entryY=0.5;entryDx=0;entryDy=0;exitX=0;exitY=0.5;exitDx=0;exitDy=0;" parent="1" source="LTqqhIScXa48sC5BbTXQ-20" target="DwRfLZ-1oQ1YcIXO67qD-41" edge="1">
          <mxGeometry width="50" height="50" relative="1" as="geometry">
            <mxPoint x="390" y="797" as="sourcePoint" />
            <mxPoint x="440" y="747" as="targetPoint" />
          </mxGeometry>
        </mxCell>
        <mxCell id="LTqqhIScXa48sC5BbTXQ-23" value="&lt;u&gt;&lt;b&gt;X&lt;/b&gt;&lt;/u&gt;" style="text;html=1;align=center;verticalAlign=middle;resizable=0;points=[];autosize=1;strokeColor=none;fillColor=none;" parent="1" vertex="1">
          <mxGeometry x="538" y="728" width="30" height="30" as="geometry" />
        </mxCell>
        <mxCell id="LTqqhIScXa48sC5BbTXQ-24" value="&lt;u&gt;&lt;b&gt;X&lt;/b&gt;&lt;/u&gt;" style="text;html=1;align=center;verticalAlign=middle;resizable=0;points=[];autosize=1;strokeColor=none;fillColor=none;" parent="1" vertex="1">
          <mxGeometry x="355" y="727" width="30" height="30" as="geometry" />
        </mxCell>
        <mxCell id="LTqqhIScXa48sC5BbTXQ-34" value="&lt;u&gt;&lt;b&gt;X&lt;/b&gt;&lt;/u&gt;" style="text;html=1;align=center;verticalAlign=middle;resizable=0;points=[];autosize=1;strokeColor=none;fillColor=none;" parent="1" vertex="1">
          <mxGeometry x="235" y="232" width="30" height="30" as="geometry" />
        </mxCell>
        <mxCell id="LTqqhIScXa48sC5BbTXQ-35" value="&lt;u&gt;&lt;b&gt;X&lt;/b&gt;&lt;/u&gt;" style="text;html=1;align=center;verticalAlign=middle;resizable=0;points=[];autosize=1;strokeColor=none;fillColor=none;" parent="1" vertex="1">
          <mxGeometry x="235" y="310" width="30" height="30" as="geometry" />
        </mxCell>
        <mxCell id="LTqqhIScXa48sC5BbTXQ-36" value="&lt;u&gt;&lt;b&gt;X&lt;/b&gt;&lt;/u&gt;" style="text;html=1;align=center;verticalAlign=middle;resizable=0;points=[];autosize=1;strokeColor=none;fillColor=none;" parent="1" vertex="1">
          <mxGeometry x="235" y="401" width="30" height="30" as="geometry" />
        </mxCell>
        <mxCell id="LTqqhIScXa48sC5BbTXQ-40" value="&lt;div&gt;COMANDA_include_&lt;/div&gt;&lt;div&gt;RETETA&lt;/div&gt;&lt;div&gt;id_comanda#&lt;/div&gt;&lt;div&gt;id_reteta#&lt;br&gt;&lt;/div&gt;" style="rounded=0;whiteSpace=wrap;html=1;dashed=1;dashPattern=1 2;" parent="1" vertex="1">
          <mxGeometry x="710" y="687" width="126" height="110" as="geometry" />
        </mxCell>
        <mxCell id="LTqqhIScXa48sC5BbTXQ-42" value="" style="endArrow=none;html=1;rounded=0;exitX=0.604;exitY=-0.006;exitDx=0;exitDy=0;exitPerimeter=0;" parent="1" source="LTqqhIScXa48sC5BbTXQ-40" edge="1">
          <mxGeometry width="50" height="50" relative="1" as="geometry">
            <mxPoint x="787" y="597" as="sourcePoint" />
            <mxPoint x="787" y="357" as="targetPoint" />
          </mxGeometry>
        </mxCell>
        <mxCell id="LTqqhIScXa48sC5BbTXQ-45" value="&lt;u&gt;&lt;b&gt;X&lt;/b&gt;&lt;/u&gt;" style="text;html=1;align=center;verticalAlign=middle;resizable=0;points=[];autosize=1;strokeColor=none;fillColor=none;" parent="1" vertex="1">
          <mxGeometry x="771" y="672" width="30" height="30" as="geometry" />
        </mxCell>
        <mxCell id="LTqqhIScXa48sC5BbTXQ-46" value="&lt;div&gt;INGREDIENT_provoaca_&lt;/div&gt;&lt;div&gt;ALERGIE&lt;/div&gt;&lt;div&gt;id_ingredient#&lt;/div&gt;&lt;div&gt;id_alergie#&lt;br&gt;&lt;/div&gt;" style="rounded=0;whiteSpace=wrap;html=1;dashed=1;dashPattern=1 2;" parent="1" vertex="1">
          <mxGeometry x="80" y="712" width="140" height="60" as="geometry" />
        </mxCell>
        <mxCell id="LTqqhIScXa48sC5BbTXQ-47" value="" style="endArrow=none;html=1;rounded=0;exitX=1;exitY=0.5;exitDx=0;exitDy=0;entryX=0;entryY=0.5;entryDx=0;entryDy=0;" parent="1" source="LTqqhIScXa48sC5BbTXQ-46" target="DwRfLZ-1oQ1YcIXO67qD-41" edge="1">
          <mxGeometry width="50" height="50" relative="1" as="geometry">
            <mxPoint x="220" y="742" as="sourcePoint" />
            <mxPoint x="270" y="947" as="targetPoint" />
          </mxGeometry>
        </mxCell>
        <mxCell id="LTqqhIScXa48sC5BbTXQ-48" value="" style="endArrow=none;html=1;rounded=0;exitX=0.5;exitY=0;exitDx=0;exitDy=0;entryX=0.5;entryY=1;entryDx=0;entryDy=0;" parent="1" source="DwRfLZ-1oQ1YcIXO67qD-55" target="LTqqhIScXa48sC5BbTXQ-46" edge="1">
          <mxGeometry width="50" height="50" relative="1" as="geometry">
            <mxPoint x="390" y="827" as="sourcePoint" />
            <mxPoint x="440" y="777" as="targetPoint" />
          </mxGeometry>
        </mxCell>
        <mxCell id="LTqqhIScXa48sC5BbTXQ-50" value="&lt;u&gt;&lt;b&gt;X&lt;/b&gt;&lt;/u&gt;" style="text;html=1;align=center;verticalAlign=middle;resizable=0;points=[];autosize=1;strokeColor=none;fillColor=none;" parent="1" vertex="1">
          <mxGeometry x="135" y="759" width="30" height="30" as="geometry" />
        </mxCell>
        <mxCell id="LTqqhIScXa48sC5BbTXQ-52" value="&lt;u&gt;&lt;b&gt;X&lt;/b&gt;&lt;/u&gt;" style="text;html=1;align=center;verticalAlign=middle;resizable=0;points=[];autosize=1;strokeColor=none;fillColor=none;" parent="1" vertex="1">
          <mxGeometry x="204" y="728" width="30" height="30" as="geometry" />
        </mxCell>
        <mxCell id="LTqqhIScXa48sC5BbTXQ-54" value="" style="endArrow=none;html=1;rounded=0;exitX=0;exitY=0.5;exitDx=0;exitDy=0;entryX=1;entryY=0.5;entryDx=0;entryDy=0;" parent="1" source="LTqqhIScXa48sC5BbTXQ-40" target="DwRfLZ-1oQ1YcIXO67qD-16" edge="1">
          <mxGeometry width="50" height="50" relative="1" as="geometry">
            <mxPoint x="660" y="667" as="sourcePoint" />
            <mxPoint x="659" y="717" as="targetPoint" />
          </mxGeometry>
        </mxCell>
        <mxCell id="LTqqhIScXa48sC5BbTXQ-55" value="&lt;u&gt;&lt;b&gt;X&lt;/b&gt;&lt;/u&gt;" style="text;html=1;align=center;verticalAlign=middle;resizable=0;points=[];autosize=1;strokeColor=none;fillColor=none;" parent="1" vertex="1">
          <mxGeometry x="694" y="727" width="30" height="30" as="geometry" />
        </mxCell>
        <mxCell id="LTqqhIScXa48sC5BbTXQ-57" value="&lt;div&gt;JOB_are_SALARIU&lt;/div&gt;&lt;div&gt;job_cod#&lt;/div&gt;&lt;div&gt;salariu&lt;br&gt;&lt;/div&gt;" style="rounded=0;whiteSpace=wrap;html=1;dashed=1;dashPattern=1 2;" parent="1" vertex="1">
          <mxGeometry x="140" y="100" width="120" height="60" as="geometry" />
        </mxCell>
        <mxCell id="LTqqhIScXa48sC5BbTXQ-58" value="" style="endArrow=none;html=1;rounded=0;exitX=0.5;exitY=1;exitDx=0;exitDy=0;entryX=0.5;entryY=0;entryDx=0;entryDy=0;" parent="1" source="LTqqhIScXa48sC5BbTXQ-57" target="R7dfJEu_5J_XWcmGC57w-11" edge="1">
          <mxGeometry width="50" height="50" relative="1" as="geometry">
            <mxPoint x="151" y="527" as="sourcePoint" />
            <mxPoint x="440" y="447" as="targetPoint" />
          </mxGeometry>
        </mxCell>
        <mxCell id="LTqqhIScXa48sC5BbTXQ-59" value="&lt;u&gt;&lt;b&gt;X&lt;/b&gt;&lt;/u&gt;" style="text;html=1;align=center;verticalAlign=middle;resizable=0;points=[];autosize=1;strokeColor=none;fillColor=none;" parent="1" vertex="1">
          <mxGeometry x="185" y="145" width="30" height="30" as="geometry" />
        </mxCell>
        <mxCell id="df_7gGYzq2t7CDCpT4Jm-241" value="" style="rounded=0;whiteSpace=wrap;html=1;" parent="1" vertex="1">
          <mxGeometry x="629.76" y="214" width="190.24" height="150" as="geometry" />
        </mxCell>
        <mxCell id="df_7gGYzq2t7CDCpT4Jm-243" value="&lt;div style=&quot;border-color: var(--border-color);&quot;&gt;COMANDA&lt;/div&gt;&lt;div style=&quot;border-color: var(--border-color);&quot;&gt;id_comanda#&lt;/div&gt;&lt;div style=&quot;border-color: var(--border-color);&quot;&gt;id_casier&lt;/div&gt;&lt;div style=&quot;border-color: var(--border-color);&quot;&gt;id_restaurant&lt;/div&gt;&lt;div style=&quot;border-color: var(--border-color);&quot;&gt;data_comanda&lt;/div&gt;" style="text;html=1;strokeColor=none;fillColor=none;align=center;verticalAlign=middle;whiteSpace=wrap;rounded=0;" parent="1" vertex="1">
          <mxGeometry x="649.76" y="274" width="60" height="30" as="geometry" />
        </mxCell>
        <mxCell id="df_7gGYzq2t7CDCpT4Jm-244" value="&lt;div&gt;LIVRARE&lt;/div&gt;&lt;div&gt;id_comanda#&lt;/div&gt;&lt;div&gt;adresa&lt;br&gt;&lt;/div&gt;&lt;div&gt;cost&lt;/div&gt;" style="rounded=1;whiteSpace=wrap;html=1;" parent="1" vertex="1">
          <mxGeometry x="740" y="259" width="80" height="60" as="geometry" />
        </mxCell>
        <mxCell id="df_7gGYzq2t7CDCpT4Jm-245" value="" style="endArrow=none;html=1;rounded=0;exitX=0.5;exitY=0;exitDx=0;exitDy=0;entryX=0.789;entryY=-0.002;entryDx=0;entryDy=0;entryPerimeter=0;" parent="1" source="df_7gGYzq2t7CDCpT4Jm-244" target="df_7gGYzq2t7CDCpT4Jm-241" edge="1">
          <mxGeometry width="50" height="50" relative="1" as="geometry">
            <mxPoint x="759.76" y="210" as="sourcePoint" />
            <mxPoint x="809.76" y="160" as="targetPoint" />
          </mxGeometry>
        </mxCell>
        <mxCell id="LTqqhIScXa48sC5BbTXQ-5" value="&lt;b&gt;X&lt;/b&gt;" style="text;html=1;align=center;verticalAlign=middle;resizable=0;points=[];autosize=1;strokeColor=none;fillColor=none;" parent="1" vertex="1">
          <mxGeometry x="710" y="351" width="30" height="30" as="geometry" />
        </mxCell>
        <mxCell id="LTqqhIScXa48sC5BbTXQ-2" value="&lt;b&gt;X&lt;/b&gt;" style="text;html=1;align=center;verticalAlign=middle;resizable=0;points=[];autosize=1;strokeColor=none;fillColor=none;" parent="1" vertex="1">
          <mxGeometry x="614" y="232" width="30" height="30" as="geometry" />
        </mxCell>
        <mxCell id="df_7gGYzq2t7CDCpT4Jm-247" value="&lt;u&gt;&lt;b&gt;X&lt;/b&gt;&lt;/u&gt;" style="text;html=1;align=center;verticalAlign=middle;resizable=0;points=[];autosize=1;strokeColor=none;fillColor=none;" parent="1" vertex="1">
          <mxGeometry x="765" y="243" width="30" height="30" as="geometry" />
        </mxCell>
      </root>
    </mxGraphModel>
  </diagram>
</mxfile>
